<?xml version="1.0" encoding="UTF-8" standalone="no"?>
<!DOCTYPE svg PUBLIC "-//W3C//DTD SVG 1.1//EN" "http://www.w3.org/Graphics/SVG/1.1/DTD/svg11.dtd">
<!-- Created with Vectornator (http://vectornator.io/) -->
<svg height="100%" stroke-miterlimit="10" style="fill-rule:nonzero;clip-rule:evenodd;stroke-linecap:round;stroke-linejoin:round;" version="1.1" viewBox="0 0 238.545 226.961" width="100%" xml:space="preserve" xmlns="http://www.w3.org/2000/svg" xmlns:vectornator="http://vectornator.io" xmlns:xlink="http://www.w3.org/1999/xlink">
<defs>
<linearGradient gradientTransform="matrix(1 0 0 0.84657 3.54517 28.2291)" gradientUnits="userSpaceOnUse" id="LinearGradient" x1="122" x2="122" y1="245.45" y2="4.302">
<stop offset="0" stop-color="#000000"/>
<stop offset="1" stop-color="#000000" stop-opacity="0"/>
</linearGradient>
<linearGradient gradientTransform="matrix(1 0 0 1 3.54517 182.569)" gradientUnits="userSpaceOnUse" id="LinearGradient_2" x1="210.17" x2="9" y1="72.064" y2="-213.25">
<stop offset="0" stop-color="#000000"/>
<stop offset="1" stop-color="#000000" stop-opacity="0"/>
</linearGradient>
<linearGradient gradientTransform="matrix(1 0 0 1 3.54517 182.569)" gradientUnits="userSpaceOnUse" id="LinearGradient_3" x1="214.25" x2="166.5" y1="-161.36" y2="-113.72">
<stop offset="0" stop-color="#ffffff"/>
<stop offset="1" stop-color="#ffffff" stop-opacity="0"/>
</linearGradient>
<linearGradient gradientTransform="matrix(1 0 0 1 3.54517 182.569)" gradientUnits="userSpaceOnUse" id="LinearGradient_4" x1="53.25" x2="57.656" y1="-126.5" y2="-62.469">
<stop offset="0" stop-color="#ffffff"/>
<stop offset="1" stop-color="#ffffff" stop-opacity="0"/>
</linearGradient>
<linearGradient gradientTransform="matrix(1 0 0 1 3.54517 182.569)" gradientUnits="userSpaceOnUse" id="LinearGradient_5" x1="39.5" x2="75.719" y1="6.625" y2="-17.125">
<stop offset="0" stop-color="#ffffff"/>
<stop offset="1" stop-color="#ffffff" stop-opacity="0"/>
</linearGradient>
<linearGradient gradientTransform="matrix(1 0 0 1 3.54517 182.569)" gradientUnits="userSpaceOnUse" id="LinearGradient_6" x1="102" x2="85.312" y1="-162.34" y2="-121.44">
<stop offset="0" stop-color="#ffffff"/>
<stop offset="1" stop-color="#ffffff" stop-opacity="0"/>
</linearGradient>
<linearGradient gradientTransform="matrix(1 0 0 1 3.54517 182.569)" gradientUnits="userSpaceOnUse" id="LinearGradient_7" x1="117.75" x2="63.5" y1="-78.094" y2="-14.75">
<stop offset="0" stop-color="#ffffff"/>
<stop offset="1" stop-color="#ffffff" stop-opacity="0"/>
</linearGradient>
<linearGradient gradientTransform="matrix(1 0 0 1 3.54517 182.569)" gradientUnits="userSpaceOnUse" id="LinearGradient_8" x1="180.69" x2="133.94" y1="-125.12" y2="-60.75">
<stop offset="0" stop-color="#ffffff"/>
<stop offset="1" stop-color="#ffffff" stop-opacity="0"/>
</linearGradient>
<linearGradient gradientTransform="matrix(1 0 0 1 3.54517 182.569)" gradientUnits="userSpaceOnUse" id="LinearGradient_9" x1="170.75" x2="130.22" y1="-23.5" y2="33.375">
<stop offset="0" stop-color="#ffffff"/>
<stop offset="1" stop-color="#ffffff" stop-opacity="0"/>
</linearGradient>
<linearGradient gradientTransform="matrix(1 0 0 1 3.54517 182.569)" gradientUnits="userSpaceOnUse" id="LinearGradient_10" x1="213.5" x2="181.75" y1="-76" y2="-5.656">
<stop offset="0" stop-color="#ffffff"/>
<stop offset="1" stop-color="#ffffff" stop-opacity="0"/>
</linearGradient>
<linearGradient gradientTransform="matrix(0.996691 0 0 1 4.32269 182.569)" gradientUnits="userSpaceOnUse" id="LinearGradient_11" x1="94.25" x2="9" y1="-94.672" y2="-179.97">
<stop offset="0" stop-color="#000000"/>
<stop offset="1" stop-color="#000000" stop-opacity="0"/>
</linearGradient>
<linearGradient gradientTransform="matrix(0.996691 0 0 1 4.32269 182.569)" gradientUnits="userSpaceOnUse" id="LinearGradient_12" x1="50.75" x2="35.75" y1="-114.44" y2="-30.438">
<stop offset="0" stop-color="#000000"/>
<stop offset="1" stop-color="#000000" stop-opacity="0"/>
</linearGradient>
<linearGradient gradientTransform="matrix(0.996691 0 0 1 4.32269 182.569)" gradientUnits="userSpaceOnUse" id="LinearGradient_13" x1="77.625" x2="115.25" y1="-163.12" y2="-74.625">
<stop offset="0" stop-color="#000000"/>
<stop offset="1" stop-color="#000000" stop-opacity="0"/>
</linearGradient>
<linearGradient gradientTransform="matrix(0.996691 0 0 1 4.32269 182.569)" gradientUnits="userSpaceOnUse" id="LinearGradient_14" x1="56.5" x2="125.72" y1="-50.438" y2="7.063">
<stop offset="0" stop-color="#000000"/>
<stop offset="1" stop-color="#000000" stop-opacity="0"/>
</linearGradient>
<linearGradient gradientTransform="matrix(0.996691 0 0 1 4.32269 182.569)" gradientUnits="userSpaceOnUse" id="LinearGradient_15" x1="35" x2="180.75" y1="-163.3" y2="-146.8">
<stop offset="0" stop-color="#000000"/>
<stop offset="1" stop-color="#000000" stop-opacity="0"/>
</linearGradient>
<linearGradient gradientTransform="matrix(0.996691 0 0 1 4.32269 182.569)" gradientUnits="userSpaceOnUse" id="LinearGradient_16" x1="57" x2="179" y1="-141.11" y2="-41.609">
<stop offset="0" stop-color="#000000"/>
<stop offset="1" stop-color="#000000" stop-opacity="0"/>
</linearGradient>
<linearGradient gradientTransform="matrix(0.996691 0 0 1 4.32269 182.569)" gradientUnits="userSpaceOnUse" id="LinearGradient_17" x1="156" x2="208.25" y1="-26.5" y2="39.75">
<stop offset="0" stop-color="#000000"/>
<stop offset="1" stop-color="#000000" stop-opacity="0"/>
</linearGradient>
<linearGradient gradientTransform="matrix(0.996691 0 0 1 4.32269 182.569)" gradientUnits="userSpaceOnUse" id="LinearGradient_18" x1="142.75" x2="235" y1="-169.3" y2="-77.297">
<stop offset="0" stop-color="#000000"/>
<stop offset="1" stop-color="#000000" stop-opacity="0"/>
</linearGradient>
<radialGradient cx="160.29" cy="83.8815" gradientTransform="matrix(1 0 0 1 0 8.30599)" gradientUnits="userSpaceOnUse" id="RadialGradient" r="37.1883">
<stop offset="1" stop-color="#ffffff"/>
<stop offset="1" stop-color="#ffffff" stop-opacity="0"/>
</radialGradient>
<radialGradient cx="159.61" cy="72.588" gradientTransform="matrix(1.1979 -0.187586 0.129825 0.829047 -29.1207 58.4652)" gradientUnits="userSpaceOnUse" id="RadialGradient_2" r="38.417">
<stop offset="0" stop-color="#ffffff" stop-opacity="0"/>
<stop offset="1" stop-color="#ffffff"/>
</radialGradient>
</defs>
<g id="g43" vectornator:layerName="g43">
<g opacity="1" vectornator:layerName="g42">
<path d="M12.545 42.8326C12.545 42.8326 20.045 52.1446 24.295 64.6316C28.545 77.1186 30.545 86.2186 30.545 86.2186C30.545 86.2186 25.045 97.0126 22.295 107.172C19.545 117.331 16.545 128.336 16.545 128.336C16.545 128.336 22.295 141.881 25.795 153.733C29.295 165.585 29.545 172.569 29.545 172.569C29.545 172.569 25.545 181.247 22.045 193.099C18.545 204.951 17.045 219.131 17.045 219.131C17.045 219.131 26.295 217.438 45.545 220.189C64.795 222.94 77.795 225.268 77.795 225.268C77.795 225.268 90.545 222.94 101.795 219.977C113.045 217.014 118.045 214.475 118.045 214.475C118.045 214.475 123.545 214.898 140.545 219.766C157.545 224.633 169.795 226.961 169.795 226.961C169.795 226.961 182.795 224.633 195.795 222.094C208.795 219.554 222.295 215.321 222.295 215.321C222.295 215.321 221.545 211.088 226.545 194.58C231.545 178.072 235.295 170.876 235.295 170.876C235.295 170.876 234.795 168.76 231.545 155.85C228.295 142.939 221.545 130.664 221.545 130.664C221.545 130.664 223.295 120.082 228.295 108.865C233.295 97.6476 238.545 86.2186 238.545 86.2186C238.545 86.2186 233.795 73.3086 231.045 61.0336C228.295 48.7576 222.795 40.9276 222.795 40.9276C222.795 40.9276 198.545 48.5466 191.045 49.8166C183.545 51.0866 170.045 54.2606 170.045 54.2606C170.045 54.2606 160.295 50.6626 148.045 47.0646C135.795 43.4666 118.295 42.4086 118.295 42.4086C118.295 42.4086 115.045 45.3716 96.295 49.1816C77.545 52.9906 68.795 54.0496 68.795 54.0496C68.795 54.0496 50.295 46.4296 37.295 44.3136C24.295 42.1976 13.295 42.6206 12.545 42.8326Z" fill="url(#LinearGradient)" fill-rule="nonzero" opacity="0.5" stroke="none" vectornator:layerName="path"/>
<path d="M12.545 2.81857C12.545 2.81857 20.045 15.8186 24.295 30.5686C28.545 45.3186 30.545 56.0686 30.545 56.0686C30.545 56.0686 25.045 68.8186 22.295 80.8186C19.545 92.8186 16.545 103.819 16.545 103.819C16.545 103.819 22.295 119.819 25.795 133.819C29.295 147.819 29.545 158.069 29.545 158.069C29.545 158.069 25.545 168.319 22.045 182.319C18.545 196.319 17.045 213.069 17.045 213.069C17.045 213.069 26.295 211.069 45.545 214.319C64.795 217.569 77.795 220.319 77.795 220.319C77.795 220.319 90.545 217.569 101.795 214.069C113.045 210.569 118.045 207.569 118.045 207.569C118.045 207.569 123.545 208.069 140.545 213.819C157.545 219.569 169.795 222.319 169.795 222.319C169.795 222.319 182.795 219.569 195.795 216.569C208.795 213.569 222.295 208.569 222.295 208.569C222.295 208.569 221.545 203.569 226.545 184.069C231.545 164.569 235.295 156.069 235.295 156.069C235.295 156.069 234.795 151.569 231.545 136.319C228.295 121.069 221.545 106.569 221.545 106.569C221.545 106.569 223.295 96.0686 228.295 82.8186C233.295 69.5686 238.545 56.0686 238.545 56.0686C238.545 56.0686 233.795 40.8186 231.045 26.3186C228.295 11.8186 222.795 0.568573 222.795 0.568573C222.795 0.568573 198.545 9.56857 191.045 11.0686C183.545 12.5686 170.045 16.3186 170.045 16.3186C170.045 16.3186 160.295 12.0686 148.045 7.81857C135.795 3.56857 118.295 2.31857 118.295 2.31857C118.295 2.31857 115.045 5.81857 96.295 10.3186C77.545 14.8186 68.795 16.0686 68.795 16.0686C68.795 16.0686 50.295 7.06857 37.295 4.56857C24.295 2.06857 13.295 2.56857 12.545 2.81857Z" fill="#ceeeab" fill-rule="nonzero" opacity="1" stroke="none" vectornator:layerName="path"/>
<g opacity="1" vectornator:layerName="path">
<clipPath clip-rule="nonzero" id="ClipPath">
<path d="M12.5452 2.81913C12.5452 2.81913 20.0452 15.8191 24.2952 30.5691C28.5452 45.3191 30.5452 56.0691 30.5452 56.0691C30.5452 56.0691 25.0452 68.8191 22.2952 80.8191C19.5452 92.8191 16.5452 103.819 16.5452 103.819C16.5452 103.819 22.2952 119.819 25.7952 133.819C29.2952 147.819 29.5452 158.069 29.5452 158.069C29.5452 158.069 25.5452 168.319 22.0452 182.319C18.5452 196.319 17.0452 213.069 17.0452 213.069C17.0452 213.069 26.2952 211.069 45.5452 214.319C64.7952 217.569 77.7952 220.319 77.7952 220.319C77.7952 220.319 90.5452 217.569 101.795 214.069C113.045 210.569 118.045 207.569 118.045 207.569C118.045 207.569 123.545 208.069 140.545 213.819C157.545 219.569 169.795 222.319 169.795 222.319C169.795 222.319 182.795 219.569 195.795 216.569C208.795 213.569 222.295 208.569 222.295 208.569C222.295 208.569 221.545 203.569 226.545 184.069C231.545 164.569 235.295 156.069 235.295 156.069C235.295 156.069 234.795 151.569 231.545 136.319C228.295 121.069 221.545 106.569 221.545 106.569C221.545 106.569 223.295 96.0691 228.295 82.8191C233.295 69.5691 238.545 56.0691 238.545 56.0691C238.545 56.0691 233.795 40.8191 231.045 26.3191C228.295 11.8191 222.795 0.569126 222.795 0.569126C222.795 0.569126 198.545 9.56913 191.045 11.0691C183.545 12.5691 170.045 16.3191 170.045 16.3191C170.045 16.3191 160.295 12.0691 148.045 7.81913C135.795 3.56913 118.295 2.31913 118.295 2.31913C118.295 2.31913 115.045 5.81913 96.2952 10.3191C77.5452 14.8191 68.7952 16.0691 68.7952 16.0691C68.7952 16.0691 50.2952 7.06913 37.2952 4.56913C24.2952 2.06913 13.2952 2.56913 12.5452 2.81913Z"/>
</clipPath>
<g clip-path="url(#ClipPath)">
<path d="M114.295-3.93087L110.045 3.06913C109.295 12.0691 107.795 16.8191 101.545 19.5691C95.2952 22.3191 89.2952 23.0691 90.5452 27.0691C91.7952 31.0691 103.545 36.3191 104.795 40.0691C106.045 43.8191 113.045 41.8191 115.795 47.0691C118.545 52.3191 117.795 62.3191 112.045 64.3191C106.295 66.3191 94.5452 64.8191 91.7952 73.8191C89.0452 82.8191 87.0452 84.3191 82.7952 86.5691C78.5452 88.8191 75.5452 97.0691 79.2952 103.069C83.0452 109.069 91.5452 101.819 94.2952 96.5691C97.0452 91.3191 101.545 87.8191 101.545 87.8191L125.295 87.8191L184.295 86.0691L187.545 82.3191C187.545 82.3191 190.795 86.3191 190.295 91.0691C189.795 95.8191 186.545 105.819 190.545 108.319C194.545 110.819 210.045 106.319 214.545 101.319C219.045 96.3191 209.795 73.0691 204.045 71.8191C198.295 70.5691 185.545 70.0691 187.045 64.8191C188.545 59.5691 198.795 69.3191 204.295 68.0691C209.795 66.8191 221.045 47.0691 216.295 42.8191C211.545 38.5691 192.045 37.5691 190.545 34.8191C189.045 32.0691 211.545 26.8191 212.795 23.8191C214.045 20.8191 210.295 16.5691 206.545 15.3191C202.795 14.0691 192.545 31.5691 185.545 31.0691C178.545 30.5691 165.545 36.8191 168.295 42.5691C171.045 48.3191 162.295 53.5691 153.795 49.0691C145.295 44.5691 129.045 36.0691 132.045 25.0691C135.045 14.0691 153.545 6.31913 153.545 6.31913L114.295-3.93087ZM100.733 103.289C99.1382 103.439 96.2642 107.979 95.7952 110.319C95.2952 112.819 92.5452 117.069 92.2952 122.569C92.0452 128.069 97.0452 129.319 101.045 129.069C105.045 128.819 103.795 122.319 103.045 114.069C102.795 114.069 102.545 103.819 101.045 103.319C100.951 103.289 100.839 103.279 100.733 103.289ZM193.455 154.949C187.115 155.239 186.825 162.409 186.045 163.819C184.795 166.069 188.295 177.569 188.045 181.819C187.795 186.069 183.295 187.069 178.545 191.569C173.795 196.069 179.045 207.569 189.795 222.569L234.545 223.819L233.545 188.819C233.545 188.819 238.295 184.569 212.795 164.569C203.235 157.069 197.255 154.769 193.455 154.949ZM43.4852 171.479C39.4552 171.369 35.2032 177.189 33.7972 179.069C32.2972 181.069 27.5472 184.069 16.7972 188.569L2.29717 222.819L55.2972 227.069C55.2972 227.069 57.0472 216.069 51.0472 211.319C45.0472 206.569 33.7972 205.569 32.7972 198.069C31.7972 190.569 42.0472 188.069 46.5472 183.819C51.0472 179.569 48.5472 172.569 44.2972 171.569C44.0306 171.509 43.7583 171.479 43.4852 171.479Z" fill="#a6dd8b" fill-rule="nonzero" opacity="1" stroke="none" vectornator:layerName="path"/>
</g>
</g>
<path d="M162.075 75.9126C157.315 75.8976 153.045 76.8806 150.545 79.0686C142.545 86.0686 115.545 79.8186 102.045 86.0686C88.545 92.3186 88.795 124.069 87.295 130.569C85.795 137.069 69.795 151.319 67.295 154.069C64.795 156.819 54.045 161.319 47.795 162.569C41.545 163.819 35.045 169.819 32.295 173.569C30.274 176.329 24.889 180.019 22.17 181.789C22.124 181.969 22.091 182.139 22.045 182.319C21.911 182.849 21.798 183.399 21.67 183.949C26.65 182.339 32.85 175.769 38.295 170.319C44.545 164.069 58.295 162.569 66.045 158.819C73.795 155.069 80.295 139.069 92.545 135.069C104.795 131.069 113.795 146.819 116.795 153.569C119.795 160.319 118.545 166.319 120.545 170.569C122.545 174.819 131.545 182.319 132.045 184.069C132.545 185.819 127.045 190.569 125.795 192.569C124.545 194.569 115.295 199.569 114.045 201.319C113.075 202.669 112.125 208.089 111.735 210.539C112.145 210.369 112.485 210.229 112.855 210.069C113.345 207.539 114.375 202.989 115.795 201.569C117.795 199.569 127.045 197.069 128.295 193.069C129.545 189.069 135.295 186.569 135.295 186.569C135.295 186.569 138.045 190.569 151.295 200.569C160.125 207.239 164.055 216.099 165.705 221.289C166.375 221.459 167.235 221.699 167.735 221.819C166.515 217.499 162.895 205.579 158.795 201.069C153.795 195.569 140.295 190.319 136.045 179.069C131.795 167.819 111.545 144.819 118.545 138.819C125.545 132.819 135.045 134.819 147.045 146.319C159.045 157.819 193.295 152.069 204.795 150.069C214.745 148.339 225.625 164.949 228.705 176.099C229.295 174.009 229.825 172.099 230.355 170.349C228.615 168.429 226.665 165.729 225.045 162.069C221.295 153.569 213.045 148.819 213.045 148.819C213.045 148.819 221.795 143.819 227.795 141.069C229.415 140.329 230.805 139.389 231.985 138.409C231.825 137.639 231.725 137.159 231.545 136.319L231.455 135.879C226.685 141.439 212.215 145.499 209.795 146.819C207.045 148.319 191.545 149.819 174.045 151.319C156.545 152.819 147.295 143.819 139.795 136.569C132.295 129.319 126.795 100.569 136.795 98.5686C146.795 96.5686 156.795 112.319 166.795 115.569C176.795 118.819 188.295 99.8186 186.545 88.5686C185.345 80.8346 172.545 75.9436 162.075 75.9126ZM108.735 89.1936C110.005 89.1946 114.595 90.7876 115.295 91.5686C117.545 94.0686 117.295 98.8186 115.295 99.5686C113.295 100.319 102.545 107.569 104.795 113.819C107.045 120.069 106.545 131.819 101.295 131.819C96.045 131.819 93.295 131.819 91.295 129.319C89.295 126.819 89.295 117.319 91.295 109.569C93.295 101.819 94.795 94.5686 99.295 91.3186C102.389 89.0846 105.925 89.1906 108.735 89.1936ZM122.325 162.289C122.525 162.299 124.235 165.799 127.045 169.319C130.045 173.069 130.295 177.569 130.295 177.569C130.295 177.569 126.045 172.819 124.295 169.569C122.545 166.319 122.295 162.319 122.295 162.319C122.295 162.289 122.315 162.289 122.325 162.289Z" fill="#aac3e7" fill-rule="nonzero" opacity="1" stroke="none" vectornator:layerName="path"/>
<path d="M126.295 62.8186C132.545 63.3186 138.545 60.5686 137.045 56.3186C135.545 52.0686 124.545 49.0686 123.795 53.3186C123.045 57.5686 125.795 63.8186 126.295 62.8186ZM112.295 47.3186C103.795 41.8186 103.795 40.0686 105.295 39.3186C106.795 38.5686 115.545 44.3186 118.045 47.3186C120.545 50.3186 115.795 49.3186 112.295 47.3186Z" fill="none" opacity="0.387" stroke="#6d7f42" stroke-linecap="round" stroke-linejoin="round" stroke-width="1" vectornator:layerName="path"/>
<g opacity="1" vectornator:layerName="path">
<clipPath clip-rule="nonzero" id="ClipPath_2">
<path d="M12.5452 2.81913C12.5452 2.81913 20.0452 15.8191 24.2952 30.5691C28.5452 45.3191 30.5452 56.0691 30.5452 56.0691C30.5452 56.0691 25.0452 68.8191 22.2952 80.8191C19.5452 92.8191 16.5452 103.819 16.5452 103.819C16.5452 103.819 22.2952 119.819 25.7952 133.819C29.2952 147.819 29.5452 158.069 29.5452 158.069C29.5452 158.069 25.5452 168.319 22.0452 182.319C18.5452 196.319 17.0452 213.069 17.0452 213.069C17.0452 213.069 26.2952 211.069 45.5452 214.319C64.7952 217.569 77.7952 220.319 77.7952 220.319C77.7952 220.319 90.5452 217.569 101.795 214.069C113.045 210.569 118.045 207.569 118.045 207.569C118.045 207.569 123.545 208.069 140.545 213.819C157.545 219.569 169.795 222.319 169.795 222.319C169.795 222.319 182.795 219.569 195.795 216.569C208.795 213.569 222.295 208.569 222.295 208.569C222.295 208.569 221.545 203.569 226.545 184.069C231.545 164.569 235.295 156.069 235.295 156.069C235.295 156.069 234.795 151.569 231.545 136.319C228.295 121.069 221.545 106.569 221.545 106.569C221.545 106.569 223.295 96.0691 228.295 82.8191C233.295 69.5691 238.545 56.0691 238.545 56.0691C238.545 56.0691 233.795 40.8191 231.045 26.3191C228.295 11.8191 222.795 0.569126 222.795 0.569126C222.795 0.569126 198.545 9.56913 191.045 11.0691C183.545 12.5691 170.045 16.3191 170.045 16.3191C170.045 16.3191 160.295 12.0691 148.045 7.81913C135.795 3.56913 118.295 2.31913 118.295 2.31913C118.295 2.31913 115.045 5.81913 96.2952 10.3191C77.5452 14.8191 68.7952 16.0691 68.7952 16.0691C68.7952 16.0691 50.2952 7.06913 37.2952 4.56913C24.2952 2.06913 13.2952 2.56913 12.5452 2.81913Z"/>
</clipPath>
<g clip-path="url(#ClipPath_2)">
<path d="M19.2952 141.819C52.2952 139.319 57.5452 138.319 55.5452 131.569C53.5452 124.819 46.7952 108.069 32.5452 109.069C18.2952 110.069 9.79517 102.319 9.79517 102.319" fill="none" opacity="0.387" stroke="#6d7f42" stroke-linecap="round" stroke-linejoin="round" stroke-width="1" vectornator:layerName="path"/>
<path d="M21.0452 167.819C39.2952 157.819 49.7952 159.319 56.0452 156.319C62.2952 153.319 69.2952 150.569 71.7952 146.819C74.2952 143.069 77.5452 135.319 77.5452 128.819C77.5452 122.319 74.0452 92.8191 80.7952 85.3191C87.5452 77.8191 98.0452 59.3191 106.795 62.0691C115.545 64.8191 119.045 71.8191 128.795 71.5691C138.545 71.3191 150.545 67.5691 153.045 59.3191C155.545 51.0691 137.295 43.3191 137.045 36.3191C136.795 29.3191 142.545 22.0691 157.295 19.3191C172.045 16.5691 180.795 7.81913 180.795 7.81913" fill="none" opacity="0.387" stroke="#6d7f42" stroke-linecap="butt" stroke-linejoin="miter" stroke-width="1" vectornator:layerName="path"/>
<path d="M18.0452 151.569C33.2952 150.069 40.2952 155.069 49.5452 153.319C58.7952 151.569 62.7952 150.319 67.2952 147.569C71.7952 144.819 73.2952 143.819 73.5452 141.069C73.7952 138.319 74.5452 128.569 70.5452 119.069C66.5452 109.569 58.0452 87.5691 62.2952 80.3191C66.5452 73.0691 67.5452 58.8191 78.0452 55.8191C88.5452 52.8191 99.0452 49.5691 105.795 54.5691C112.545 59.5691 118.545 68.8191 125.795 69.0691C133.045 69.3191 137.545 67.5691 140.295 64.5691C143.045 61.5691 144.795 54.3191 142.045 50.8191C139.295 47.3191 126.545 45.3191 124.795 41.3191C123.045 37.3191 114.045 24.3191 124.545 14.5691C135.045 4.81913 160.795 6.31913 160.795 6.31913" fill="none" opacity="0.387" stroke="#6d7f42" stroke-linecap="round" stroke-linejoin="round" stroke-width="1" vectornator:layerName="path"/>
<path d="M24.7952 149.569C38.5452 150.569 46.2952 153.819 58.2952 149.069C70.2952 144.319 71.7952 143.819 72.0452 140.319C72.2952 136.819 71.7952 124.569 69.0452 120.319C66.2952 116.069 56.0452 106.569 53.2952 96.0691C50.5452 85.5691 53.5452 55.0691 61.7952 47.8191C70.0452 40.5691 93.7952 40.5691 99.2952 37.3191C104.795 34.0691 104.545 20.5691 112.295 12.8191C120.045 5.06913 139.295 0.569126 139.295 0.569126M193.545 9.06913C205.295 14.0691 232.545 18.8191 240.795 49.3191M13.2952 204.569C32.2952 192.069 49.2952 203.319 62.2952 200.569C75.2952 197.819 100.545 163.319 108.295 163.569C116.045 163.819 113.795 151.819 116.795 150.319C119.795 148.819 122.295 156.319 128.545 158.319C134.795 160.319 153.045 155.569 152.045 152.569C151.045 149.569 145.045 144.819 146.545 144.069C148.045 143.319 155.045 149.069 159.295 147.569C163.545 146.069 203.045 146.569 207.795 134.069C212.545 121.569 229.295 120.569 229.295 120.569M81.0452 224.069C94.5452 212.569 104.295 199.069 109.545 197.069C114.795 195.069 122.295 193.319 125.295 189.069C128.295 184.819 127.795 178.319 130.545 177.069C133.295 175.819 134.295 182.819 139.295 183.069C144.295 183.319 176.045 178.069 182.045 171.319C188.045 164.569 214.295 158.819 214.545 156.819C214.795 154.819 213.545 152.069 214.795 151.319C216.045 150.569 239.545 145.319 239.545 145.319M172.295 226.569C181.295 212.819 192.795 185.569 201.795 184.569C210.795 183.569 212.045 182.069 214.295 180.319C216.545 178.569 231.295 182.569 231.295 182.569" fill="none" opacity="0.387" stroke="#6d7f42" stroke-linecap="round" stroke-linejoin="round" stroke-width="1" vectornator:layerName="path"/>
</g>
</g>
<g opacity="1" vectornator:layerName="path">
<clipPath clip-rule="nonzero" id="ClipPath_3">
<path d="M12.5452 2.81913C12.5452 2.81913 20.0452 15.8191 24.2952 30.5691C28.5452 45.3191 30.5452 56.0691 30.5452 56.0691C30.5452 56.0691 25.0452 68.8191 22.2952 80.8191C19.5452 92.8191 16.5452 103.819 16.5452 103.819C16.5452 103.819 22.2952 119.819 25.7952 133.819C29.2952 147.819 29.5452 158.069 29.5452 158.069C29.5452 158.069 25.5452 168.319 22.0452 182.319C18.5452 196.319 17.0452 213.069 17.0452 213.069C17.0452 213.069 26.2952 211.069 45.5452 214.319C64.7952 217.569 77.7952 220.319 77.7952 220.319C77.7952 220.319 90.5452 217.569 101.795 214.069C113.045 210.569 118.045 207.569 118.045 207.569C118.045 207.569 123.545 208.069 140.545 213.819C157.545 219.569 169.795 222.319 169.795 222.319C169.795 222.319 182.795 219.569 195.795 216.569C208.795 213.569 222.295 208.569 222.295 208.569C222.295 208.569 221.545 203.569 226.545 184.069C231.545 164.569 235.295 156.069 235.295 156.069C235.295 156.069 234.795 151.569 231.545 136.319C228.295 121.069 221.545 106.569 221.545 106.569C221.545 106.569 223.295 96.0691 228.295 82.8191C233.295 69.5691 238.545 56.0691 238.545 56.0691C238.545 56.0691 233.795 40.8191 231.045 26.3191C228.295 11.8191 222.795 0.569126 222.795 0.569126C222.795 0.569126 198.545 9.56913 191.045 11.0691C183.545 12.5691 170.045 16.3191 170.045 16.3191C170.045 16.3191 160.295 12.0691 148.045 7.81913C135.795 3.56913 118.295 2.31913 118.295 2.31913C118.295 2.31913 115.045 5.81913 96.2952 10.3191C77.5452 14.8191 68.7952 16.0691 68.7952 16.0691C68.7952 16.0691 50.2952 7.06913 37.2952 4.56913C24.2952 2.06913 13.2952 2.56913 12.5452 2.81913Z"/>
</clipPath>
<g clip-path="url(#ClipPath_3)">
<path d="M61.2952 10.5691L52.7952 38.8191L70.7952 45.0691L78.5452 81.3191L57.5452 103.569L66.5452 114.069L54.5452 125.569L55.0452 130.069L75.2952 154.569L89.2952 147.819L109.795 166.319L99.2952 194.569L109.545 203.069L106.795 216.069" fill="none" opacity="1" stroke="#d38484" stroke-linecap="round" stroke-linejoin="miter" stroke-width="2" vectornator:layerName="path"/>
<path d="M109.295 202.819L121.795 175.069L132.795 168.069L160.295 183.819L180.795 180.069L180.545 164.319L170.295 158.319L183.045 132.069L188.795 128.319L227.545 118.319" fill="none" opacity="1" stroke="#d38484" stroke-linecap="round" stroke-linejoin="miter" stroke-width="2" vectornator:layerName="path"/>
</g>
</g>
<path d="M12.545 2.81857C12.545 2.81857 20.045 15.8186 24.295 30.5686C28.545 45.3186 30.545 56.0686 30.545 56.0686C30.545 56.0686 25.045 68.8186 22.295 80.8186C19.545 92.8186 16.545 103.819 16.545 103.819C16.545 103.819 22.295 119.819 25.795 133.819C29.295 147.819 29.545 158.069 29.545 158.069C29.545 158.069 25.545 168.319 22.045 182.319C18.545 196.319 17.045 213.069 17.045 213.069C17.045 213.069 26.295 211.069 45.545 214.319C64.795 217.569 77.795 220.319 77.795 220.319C77.795 220.319 90.545 217.569 101.795 214.069C113.045 210.569 118.045 207.569 118.045 207.569C118.045 207.569 123.545 208.069 140.545 213.819C157.545 219.569 169.795 222.319 169.795 222.319C169.795 222.319 182.795 219.569 195.795 216.569C208.795 213.569 222.295 208.569 222.295 208.569C222.295 208.569 221.545 203.569 226.545 184.069C231.545 164.569 235.295 156.069 235.295 156.069C235.295 156.069 234.795 151.569 231.545 136.319C228.295 121.069 221.545 106.569 221.545 106.569C221.545 106.569 223.295 96.0686 228.295 82.8186C233.295 69.5686 238.545 56.0686 238.545 56.0686C238.545 56.0686 233.795 40.8186 231.045 26.3186C228.295 11.8186 222.795 0.568573 222.795 0.568573C222.795 0.568573 198.545 9.56857 191.045 11.0686C183.545 12.5686 170.045 16.3186 170.045 16.3186C170.045 16.3186 160.295 12.0686 148.045 7.81857C135.795 3.56857 118.295 2.31857 118.295 2.31857C118.295 2.31857 115.045 5.81857 96.295 10.3186C77.545 14.8186 68.795 16.0686 68.795 16.0686C68.795 16.0686 50.295 7.06857 37.295 4.56857C24.295 2.06857 13.295 2.56857 12.545 2.81857Z" fill="url(#LinearGradient_2)" fill-rule="nonzero" opacity="0.039" stroke="none" vectornator:layerName="path"/>
<g opacity="0.27" vectornator:layerName="g28">
<path d="M222.795 0.569126C222.795 0.569126 198.545 9.56913 191.045 11.0691C183.545 12.5691 170.045 16.3191 170.045 16.3191C174.965 14.9591 181.485 61.7091 184.295 68.5691L184.235 68.8491C196.045 64.7791 235.445 64.0791 238.545 56.0691C238.545 56.0691 233.795 40.8191 231.045 26.3191C228.295 11.8191 222.795 0.569126 222.795 0.569126Z" fill="url(#LinearGradient_3)" fill-rule="nonzero" opacity="1" stroke="none" vectornator:layerName="path"/>
<path d="M30.5452 56.0691C30.5452 56.0691 25.0452 68.8191 22.2952 80.8191C19.5452 92.8191 16.5452 103.819 16.5452 103.819L67.1702 120.1L82.9512 61.1891L30.5452 56.0691Z" fill="url(#LinearGradient_4)" fill-rule="nonzero" opacity="1" stroke="none" vectornator:layerName="path"/>
<path d="M29.5452 158.069C29.5452 158.069 25.5452 168.319 22.0452 182.319C18.5452 196.319 17.0452 213.069 17.0452 213.069C17.0452 213.069 17.1922 213.024 17.4832 212.975C19.5162 212.637 28.7012 211.475 45.5452 214.319C64.7952 217.569 77.7952 220.319 77.7952 220.319L79.2642 167.819L78.5142 167.944L29.5452 158.069Z" fill="url(#LinearGradient_5)" fill-rule="nonzero" opacity="1" stroke="none" vectornator:layerName="path"/>
<path d="M118.295 2.31913C118.295 2.31913 115.045 5.81913 96.2952 10.3191C77.5452 14.8191 68.7952 16.0691 68.7952 16.0691C73.9772 30.7691 80.8252 45.3391 83.0452 60.8191L82.9512 61.1291L130.985 57.1891L132.105 57.4491C128.745 44.1191 124.315 2.84913 118.295 2.31913Z" fill="url(#LinearGradient_6)" fill-rule="nonzero" opacity="1" stroke="none" vectornator:layerName="path"/>
<path d="M121.135 104.475L67.5142 120.194L67.1702 120.1L67.0452 120.569L79.2952 167.069L79.2642 167.819L128.735 158.944L129.265 159.131L129.295 159.069L121.045 104.819L121.135 104.475Z" fill="url(#LinearGradient_7)" fill-rule="nonzero" opacity="1" stroke="none" vectornator:layerName="path"/>
<path d="M132.105 57.4491C132.345 58.3691 132.575 59.1891 132.795 59.8191L121.135 104.475L121.235 104.444L173.045 121.819L184.235 68.8491C183.875 68.9691 183.535 69.0991 183.235 69.2291L132.105 57.4491Z" fill="url(#LinearGradient_8)" fill-rule="nonzero" opacity="1" stroke="none" vectornator:layerName="path"/>
<path d="M129.075 159.069L118.045 207.569C118.045 207.569 123.545 208.069 140.545 213.819C142.665 214.538 144.705 215.225 146.665 215.85C148.635 216.476 150.525 217.036 152.295 217.569C162.915 220.768 169.795 222.319 169.795 222.319L182.515 176.913C182.005 177.095 181.495 177.293 180.985 177.475L129.075 159.069Z" fill="url(#LinearGradient_9)" fill-rule="nonzero" opacity="1" stroke="none" vectornator:layerName="path"/>
<path d="M221.545 106.569C205.875 112.857 189.845 117.719 173.485 121.975L173.045 121.819L182.545 176.819L182.515 176.913C200.355 170.553 217.895 163.526 235.295 156.069C235.295 156.069 234.795 151.569 231.545 136.319C228.295 121.069 221.545 106.569 221.545 106.569Z" fill="url(#LinearGradient_10)" fill-rule="nonzero" opacity="1" stroke="none" vectornator:layerName="path"/>
</g>
<g opacity="0.043" vectornator:layerName="g36">
<path d="M17.9963 2.59913C16.894 2.59913 16.0308 2.62913 15.2863 2.65913C14.8428 2.67913 14.4341 2.69913 14.1341 2.72913C14.1042 2.72913 14.0683 2.71913 14.0404 2.72913C13.6437 2.75913 13.3866 2.78913 13.2929 2.81913C12.2723 2.85313-0.872061 16.5301 25.004 30.5691C50.8801 44.6081 31.2333 56.0691 31.2333 56.0691L82.532 61.1891L83.4659 61.1291L83.5596 60.8191C81.347 45.3391 74.5216 30.7691 69.3568 16.0691C69.3568 16.0691 50.918 7.06913 37.961 4.56913C36.9464 4.36913 35.9577 4.19913 34.9709 4.03913C34.3769 3.93913 33.8078 3.83913 33.2267 3.75913C32.9905 3.71913 32.7752 3.69913 32.541 3.65913C31.2772 3.48113 30.0114 3.32813 28.7416 3.19913C28.0091 3.11913 27.3512 3.06913 26.6546 3.00913C25.9718 2.94913 25.306 2.89913 24.6612 2.84913C23.6725 2.77913 22.7774 2.72913 21.8894 2.69913C20.4382 2.62913 19.1295 2.59913 17.9963 2.59913Z" fill="url(#LinearGradient_11)" fill-rule="nonzero" opacity="1" stroke="none" vectornator:layerName="path"/>
<path d="M17.2797 103.819C17.2797 103.819 23.0106 119.819 26.4991 133.819C29.9875 147.819 30.2367 158.069 30.2367 158.069L79.0436 167.944L79.7911 167.819L79.822 167.069L67.6126 120.569L67.7372 120.1L17.2797 103.819Z" fill="url(#LinearGradient_12)" fill-rule="nonzero" opacity="1" stroke="none" vectornator:layerName="path"/>
<path d="M131.341 57.1891L83.5287 61.1891L83.4659 61.1891L67.7372 120.1L68.08 120.194L121.524 104.475L133.145 59.8191C132.926 59.1891 132.696 58.3691 132.457 57.4491L131.341 57.1891Z" fill="url(#LinearGradient_13)" fill-rule="nonzero" opacity="1" stroke="none" vectornator:layerName="path"/>
<path d="M129.098 158.944L79.7911 167.819L78.327 220.319C78.327 220.319 91.0348 217.569 102.248 214.069C113.46 210.569 118.444 207.569 118.444 207.569L129.627 159.131L129.098 158.944Z" fill="url(#LinearGradient_14)" fill-rule="nonzero" opacity="1" stroke="none" vectornator:layerName="path"/>
<path d="M118.693 2.31913C124.693 2.84913 129.108 44.1191 132.457 57.4491L183.418 69.2291C183.717 69.0991 184.056 68.9691 184.415 68.8491L184.475 68.5691C181.674 61.7091 175.175 14.9591 170.272 16.3191C170.272 16.3191 169.664 16.0691 168.557 15.5991C165.248 14.2091 157.504 11.0091 148.345 7.81913C136.135 3.56913 118.693 2.31913 118.693 2.31913Z" fill="url(#LinearGradient_15)" fill-rule="nonzero" opacity="1" stroke="none" vectornator:layerName="path"/>
<path d="M121.623 104.444L121.524 104.475L121.434 104.819L129.657 158.069L129.437 159.069L181.176 177.475C181.684 177.294 182.192 177.095 182.7 176.913L182.73 176.819L173.262 121.819L121.623 104.444Z" fill="url(#LinearGradient_16)" fill-rule="nonzero" opacity="1" stroke="none" vectornator:layerName="path"/>
<path d="M235.306 156.069C217.963 163.526 200.481 170.553 182.7 176.913L170.023 222.319C170.023 222.319 182.98 219.569 195.937 216.569C208.894 213.569 222.349 208.569 222.349 208.569C222.349 208.569 221.601 203.569 226.585 184.069C231.568 164.569 235.306 156.069 235.306 156.069Z" fill="url(#LinearGradient_17)" fill-rule="nonzero" opacity="1" stroke="none" vectornator:layerName="path"/>
<path d="M238.545 56.0691C235.455 64.0791 196.186 64.7791 184.415 68.8491L173.262 121.819L173.7 121.975C190.006 117.719 205.983 112.857 221.601 106.569C221.601 106.569 223.346 96.0691 228.329 82.8191C233.312 69.5691 238.545 56.0691 238.545 56.0691Z" fill="url(#LinearGradient_18)" fill-rule="nonzero" opacity="1" stroke="none" vectornator:layerName="path"/>
</g>
<g fill="#ffffff" opacity="1" stroke="none" vectornator:layerName="tspan">
<path d="M125.595 66.9254C127.011 66.7036 128.126 67.1266 128.941 68.1942C129.571 69.0193 130.009 70.2163 130.255 71.7853C130.488 73.2728 130.459 74.5378 130.168 75.5802C129.744 77.0765 128.804 77.9387 127.347 78.1669C126.033 78.3727 124.966 77.9553 124.145 76.9147C123.461 76.0459 122.993 74.8091 122.742 73.2044C122.548 71.9615 122.541 70.8691 122.722 69.9274C123.063 68.1725 124.021 67.1719 125.595 66.9254ZM127.144 76.9149C127.857 76.8032 128.375 76.3984 128.699 75.7005C129.023 75.0026 129.05 73.7928 128.781 72.071C128.586 70.828 128.273 69.8293 127.842 69.0748C127.41 68.3203 126.754 68.0121 125.873 68.1501C125.063 68.2769 124.53 68.7505 124.275 69.5707C124.02 70.3909 124.008 71.5422 124.241 73.0246C124.415 74.1402 124.675 75.018 125.021 75.6581C125.55 76.6348 126.257 77.0537 127.144 76.9149Z"/>
<path d="M132.063 69.1849L131.898 68.1304C132.876 67.8781 133.543 67.6078 133.9 67.3197C134.257 67.0316 134.466 66.4496 134.527 65.5736L135.612 65.4037L137.318 76.3001L135.851 76.5299L134.638 68.7816L132.063 69.1849Z"/>
<path d="M143.002 64.1996C144.418 63.9778 145.533 64.4007 146.347 65.4684C146.978 66.2935 147.416 67.4905 147.661 69.0595C147.894 70.547 147.865 71.812 147.575 72.8543C147.151 74.3507 146.211 75.2129 144.754 75.441C143.44 75.6469 142.373 75.2295 141.552 74.1889C140.868 73.32 140.4 72.0833 140.149 70.4786C139.954 69.2356 139.948 68.1433 140.129 67.2015C140.47 65.4467 141.428 64.4461 143.002 64.1996ZM144.55 74.1891C145.264 74.0774 145.782 73.6726 146.106 72.9747C146.43 72.2768 146.457 71.067 146.187 69.3451C145.993 68.1022 145.68 67.1034 145.248 66.349C144.817 65.5945 144.161 65.2863 143.28 65.4243C142.47 65.5511 141.937 66.0246 141.682 66.8449C141.427 67.6651 141.415 68.8164 141.647 70.2988C141.822 71.4144 142.082 72.2922 142.428 72.9323C142.956 73.9089 143.664 74.3279 144.55 74.1891Z"/>
<path d="M149.47 66.4591L149.305 65.4046C150.283 65.1522 150.95 64.882 151.307 64.5939C151.664 64.3058 151.873 63.7237 151.934 62.8478L153.019 62.6779L154.725 73.5743L153.258 73.8041L152.045 66.0558L149.47 66.4591Z"/>
<path d="M157.019 65.2768L156.854 64.2224C157.832 63.97 158.5 63.6998 158.857 63.4117C159.213 63.1235 159.422 62.5415 159.483 61.6656L160.568 61.4957L162.275 72.3921L160.808 72.6218L159.594 64.8736L157.019 65.2768Z"/>
<path d="M167.958 60.2915C169.374 60.0697 170.489 60.4927 171.304 61.5603C171.934 62.3854 172.372 63.5825 172.618 65.1515C172.851 66.639 172.822 67.9039 172.531 68.9463C172.108 70.4426 171.167 71.3048 169.711 71.533C168.396 71.7388 167.329 71.3214 166.508 70.2808C165.824 69.412 165.357 68.1752 165.105 66.5706C164.911 65.3276 164.904 64.2352 165.085 63.2935C165.426 61.5387 166.384 60.538 167.958 60.2915ZM169.507 70.281C170.22 70.1693 170.738 69.7646 171.062 69.0667C171.386 68.3688 171.413 67.1589 171.144 65.4371C170.949 64.1941 170.636 63.1954 170.205 62.4409C169.774 61.6865 169.117 61.3782 168.236 61.5162C167.426 61.6431 166.893 62.1166 166.638 62.9368C166.383 63.757 166.372 64.9083 166.604 66.3907C166.778 67.5063 167.038 68.3842 167.384 69.0242C167.913 70.0009 168.62 70.4198 169.507 70.281Z"/>
<path d="M176.661 58.9286C178.078 58.7068 179.193 59.1298 180.007 60.1974C180.637 61.0225 181.075 62.2196 181.321 63.7886C181.554 65.2761 181.525 66.541 181.234 67.5834C180.811 69.0797 179.871 69.9419 178.414 70.1701C177.1 70.3759 176.032 69.9585 175.212 68.9179C174.528 68.0491 174.06 66.8123 173.809 65.2077C173.614 63.9647 173.607 62.8723 173.789 61.9306C174.13 60.1758 175.087 59.1751 176.661 58.9286ZM178.21 68.9181C178.923 68.8064 179.442 68.4016 179.766 67.7038C180.09 67.0059 180.117 65.796 179.847 64.0742C179.652 62.8312 179.339 61.8325 178.908 61.078C178.477 60.3235 177.821 60.0153 176.939 60.1533C176.129 60.2802 175.597 60.7537 175.342 61.5739C175.086 62.3941 175.075 63.5454 175.307 65.0278C175.482 66.1434 175.742 67.0213 176.087 67.6613C176.616 68.638 177.324 69.0569 178.21 68.9181Z"/>
<path d="M183.129 61.1881L182.964 60.1336C183.942 59.8813 184.61 59.611 184.967 59.3229C185.323 59.0348 185.532 58.4528 185.594 57.5768L186.679 57.4069L188.385 68.3033L186.918 68.5331L185.705 60.7849L183.129 61.1881Z"/>
</g>
<g fill="url(#RadialGradient)" opacity="1" stroke="none" vectornator:layerName="tspan">
<path d="M129.424 91.3774C130.84 91.1556 131.955 91.5786 132.77 92.6462C133.4 93.4713 133.838 94.6683 134.084 96.2373C134.317 97.7248 134.288 98.9898 133.997 100.032C133.574 101.528 132.633 102.391 131.177 102.619C129.862 102.825 128.795 102.407 127.974 101.367C127.29 100.498 126.823 99.2611 126.571 97.6564C126.377 96.4135 126.37 95.3211 126.551 94.3794C126.892 92.6245 127.85 91.6239 129.424 91.3774ZM130.973 101.367C131.686 101.255 132.204 100.85 132.528 100.153C132.852 99.4547 132.879 98.2448 132.61 96.523C132.415 95.28 132.102 94.2813 131.671 93.5268C131.239 92.7723 130.583 92.4641 129.702 92.6021C128.892 92.7289 128.359 93.2025 128.104 94.0227C127.849 94.8429 127.838 95.9942 128.07 97.4766C128.244 98.5922 128.504 99.4701 128.85 100.11C129.379 101.087 130.086 101.506 130.973 101.367Z"/>
<path d="M138.127 90.0145C139.544 89.7927 140.659 90.2156 141.473 91.2833C142.103 92.1084 142.541 93.3054 142.787 94.8744C143.02 96.3619 142.991 97.6269 142.7 98.6693C142.277 100.166 141.337 101.028 139.88 101.256C138.566 101.462 137.498 101.044 136.678 100.004C135.994 99.135 135.526 97.8982 135.275 96.2935C135.08 95.0506 135.073 93.9582 135.255 93.0165C135.596 91.2616 136.553 90.261 138.127 90.0145ZM139.676 100.004C140.389 99.8923 140.908 99.4875 141.232 98.7896C141.556 98.0917 141.583 96.8819 141.313 95.1601C141.118 93.9171 140.805 92.9184 140.374 92.1639C139.943 91.4094 139.287 91.1012 138.405 91.2392C137.595 91.366 137.063 91.8396 136.808 92.6598C136.552 93.48 136.541 94.6313 136.773 96.1137C136.948 97.2293 137.208 98.1071 137.553 98.7472C138.082 99.7239 138.79 100.143 139.676 100.004Z"/>
<path d="M144.595 92.274L144.43 91.2195C145.408 90.9671 146.076 90.6969 146.433 90.4088C146.789 90.1207 146.998 89.5387 147.06 88.6627L148.145 88.4928L149.851 99.3892L148.384 99.619L147.17 91.8707L144.595 92.274Z"/>
<path d="M152.145 91.0918L151.98 90.0373C152.958 89.7849 153.625 89.5147 153.982 89.2266C154.339 88.9385 154.548 88.3564 154.609 87.4805L155.694 87.3106L157.4 98.207L155.933 98.4367L154.72 90.6885L152.145 91.0918Z"/>
<path d="M163.084 86.1064C164.5 85.8847 165.615 86.3076 166.43 87.3753C167.06 88.2003 167.498 89.3974 167.743 90.9664C167.976 92.4539 167.947 93.7188 167.657 94.7612C167.233 96.2575 166.293 97.1198 164.836 97.3479C163.522 97.5537 162.455 97.1363 161.634 96.0958C160.95 95.2269 160.482 93.9902 160.231 92.3855C160.036 91.1425 160.03 90.0502 160.211 89.1084C160.552 87.3536 161.51 86.3529 163.084 86.1064ZM164.632 96.0959C165.346 95.9843 165.864 95.5795 166.188 94.8816C166.512 94.1837 166.539 92.9738 166.269 91.252C166.075 90.009 165.762 89.0103 165.33 88.2558C164.899 87.5014 164.243 87.1931 163.362 87.3312C162.552 87.458 162.019 87.9315 161.764 88.7517C161.509 89.5719 161.497 90.7232 161.729 92.2056C161.904 93.3213 162.164 94.1991 162.51 94.8391C163.038 95.8158 163.746 96.2347 164.632 96.0959Z"/>
<path d="M169.552 88.3659L169.387 87.3114C170.365 87.0591 171.032 86.7889 171.389 86.5008C171.746 86.2126 171.955 85.6306 172.016 84.7547L173.101 84.5848L174.807 95.4812L173.34 95.7109L172.127 87.9627L169.552 88.3659Z"/>
<path d="M180.49 83.3806C181.907 83.1588 183.022 83.5818 183.836 84.6494C184.467 85.4745 184.904 86.6716 185.15 88.2406C185.383 89.7281 185.354 90.993 185.063 92.0354C184.64 93.5317 183.7 94.3939 182.243 94.6221C180.929 94.8279 179.861 94.4105 179.041 93.3699C178.357 92.5011 177.889 91.2643 177.638 89.6597C177.443 88.4167 177.436 87.3243 177.618 86.3826C177.959 84.6278 178.916 83.6271 180.49 83.3806ZM182.039 93.3701C182.752 93.2584 183.271 92.8537 183.595 92.1558C183.919 91.4579 183.946 90.248 183.676 88.5262C183.482 87.2832 183.169 86.2845 182.737 85.53C182.306 84.7756 181.65 84.4673 180.768 84.6053C179.958 84.7322 179.426 85.2057 179.171 86.0259C178.916 86.8461 178.904 87.9974 179.136 89.4798C179.311 90.5954 179.571 91.4733 179.916 92.1133C180.445 93.09 181.153 93.5089 182.039 93.3701Z"/>
<path d="M186.958 85.6401L186.793 84.5856C187.772 84.3333 188.439 84.0631 188.796 83.7749C189.153 83.4868 189.361 82.9048 189.423 82.0288L190.508 81.8589L192.214 92.7554L190.747 92.9851L189.534 85.2369L186.958 85.6401Z"/>
</g>
<g fill="url(#RadialGradient_2)" opacity="1" stroke="none" vectornator:layerName="tspan">
<path d="M131.018 119.452L130.853 118.397C131.831 118.145 132.498 117.875 132.855 117.587C133.212 117.299 133.421 116.716 133.482 115.841L134.567 115.671L136.273 126.567L134.806 126.797L133.593 119.049L131.018 119.452Z"/>
<path d="M141.956 114.466C143.373 114.245 144.488 114.668 145.302 115.735C145.932 116.56 146.37 117.757 146.616 119.326C146.849 120.814 146.82 122.079 146.529 123.121C146.106 124.618 145.166 125.48 143.709 125.708C142.395 125.914 141.327 125.496 140.507 124.456C139.823 123.587 139.355 122.35 139.104 120.746C138.909 119.503 138.902 118.41 139.084 117.468C139.425 115.714 140.382 114.713 141.956 114.466ZM143.505 124.456C144.218 124.344 144.737 123.94 145.061 123.242C145.385 122.544 145.412 121.334 145.142 119.612C144.947 118.369 144.635 117.37 144.203 116.616C143.772 115.861 143.116 115.553 142.234 115.691C141.424 115.818 140.892 116.292 140.637 117.112C140.381 117.932 140.37 119.083 140.602 120.566C140.777 121.681 141.037 122.559 141.382 123.199C141.911 124.176 142.619 124.595 143.505 124.456Z"/>
<path d="M150.66 113.104C152.076 112.882 153.191 113.305 154.006 114.372C154.636 115.197 155.074 116.395 155.32 117.964C155.552 119.451 155.524 120.716 155.233 121.758C154.809 123.255 153.869 124.117 152.412 124.345C151.098 124.551 150.031 124.133 149.21 123.093C148.526 122.224 148.058 120.987 147.807 119.383C147.612 118.14 147.606 117.047 147.787 116.106C148.128 114.351 149.086 113.35 150.66 113.104ZM152.208 123.093C152.922 122.981 153.44 122.577 153.764 121.879C154.088 121.181 154.115 119.971 153.846 118.249C153.651 117.006 153.338 116.007 152.907 115.253C152.475 114.499 151.819 114.19 150.938 114.328C150.128 114.455 149.595 114.929 149.34 115.749C149.085 116.569 149.073 117.72 149.305 119.203C149.48 120.318 149.74 121.196 150.086 121.836C150.615 122.813 151.322 123.232 152.208 123.093Z"/>
<path d="M157.128 115.363L156.963 114.309C157.941 114.056 158.608 113.786 158.965 113.498C159.322 113.21 159.531 112.628 159.592 111.752L160.677 111.582L162.383 122.478L160.916 122.708L159.703 114.96L157.128 115.363Z"/>
<path d="M168.067 110.378C169.483 110.156 170.598 110.579 171.412 111.647C172.043 112.472 172.481 113.669 172.726 115.238C172.959 116.725 172.93 117.99 172.639 119.033C172.216 120.529 171.276 121.391 169.819 121.619C168.505 121.825 167.437 121.408 166.617 120.367C165.933 119.498 165.465 118.261 165.214 116.657C165.019 115.414 165.013 114.321 165.194 113.38C165.535 111.625 166.493 110.624 168.067 110.378ZM169.615 120.367C170.328 120.256 170.847 119.851 171.171 119.153C171.495 118.455 171.522 117.245 171.252 115.523C171.058 114.28 170.745 113.282 170.313 112.527C169.882 111.773 169.226 111.464 168.345 111.602C167.535 111.729 167.002 112.203 166.747 113.023C166.492 113.843 166.48 114.995 166.712 116.477C166.887 117.593 167.147 118.47 167.493 119.11C168.021 120.087 168.729 120.506 169.615 120.367Z"/>
<path d="M176.77 109.015C178.186 108.793 179.301 109.216 180.116 110.284C180.746 111.109 181.184 112.306 181.43 113.875C181.663 115.362 181.634 116.627 181.343 117.67C180.92 119.166 179.979 120.028 178.523 120.256C177.208 120.462 176.141 120.045 175.32 119.004C174.636 118.135 174.169 116.899 173.917 115.294C173.723 114.051 173.716 112.959 173.897 112.017C174.238 110.262 175.196 109.261 176.77 109.015ZM178.319 119.004C179.032 118.893 179.55 118.488 179.874 117.79C180.198 117.092 180.225 115.882 179.956 114.16C179.761 112.917 179.448 111.919 179.017 111.164C178.585 110.41 177.929 110.102 177.048 110.24C176.238 110.366 175.705 110.84 175.45 111.66C175.195 112.48 175.184 113.632 175.416 115.114C175.59 116.23 175.85 117.108 176.196 117.748C176.725 118.724 177.432 119.143 178.319 119.004Z"/>
<path d="M183.238 111.274L183.073 110.22C184.051 109.968 184.719 109.697 185.075 109.409C185.432 109.121 185.641 108.539 185.702 107.663L186.787 107.493L188.494 118.39L187.026 118.619L185.813 110.871L183.238 111.274Z"/>
<path d="M190.788 110.092L190.622 109.038C191.601 108.785 192.268 108.515 192.625 108.227C192.982 107.939 193.191 107.357 193.252 106.481L194.337 106.311L196.043 117.207L194.576 117.437L193.363 109.689L190.788 110.092Z"/>
</g>
<g opacity="1" vectornator:layerName="VRdevice">
<path d="M74.7804 53.2784L74.7804 119.301C74.7804 123.192 76.9445 126.436 79.7669 126.778L110.297 130.449C114.012 130.894 117.675 128.99 120.241 125.275L132.691 107.272C136.193 102.207 142.065 102.207 145.567 107.272L158.015 125.275C160.584 128.99 164.246 130.894 167.962 130.449L198.491 126.778C201.312 126.436 203.478 123.192 203.478 119.301L203.478 53.2784C203.476 49.1352 201.031 45.7742 198.014 45.7717L80.2421 45.7717C77.225 45.7717 74.7804 49.1303 74.7804 53.2784Z" fill="#000000" fill-opacity="0.499487" fill-rule="nonzero" opacity="1" stroke="#000000" stroke-linecap="round" stroke-linejoin="round" stroke-width="6.5784" vectornator:layerName="path"/>
<path d="M152.17 61.3765L127.445 61.3765C126.195 61.3765 125.415 68.057 126.039 73.4003C126.331 75.8814 126.865 77.4091 127.445 77.4091L152.17 77.4091C153.418 77.4091 154.199 70.7287 153.574 65.3853C153.284 62.9018 152.75 61.3765 152.17 61.3765Z" fill="#000000" fill-opacity="0.499487" fill-rule="nonzero" opacity="1" stroke="#000000" stroke-linecap="round" stroke-linejoin="round" stroke-width="6.5784" vectornator:layerName="path"/>
<path d="M67.1947 69.394C66.6546 69.394 66.2157 69.9954 66.2157 70.7384L66.2157 107.12C66.2157 107.863 66.6546 108.465 67.1947 108.465L74.7804 108.465L74.7804 69.394L67.1947 69.394Z" fill="#000000" fill-opacity="0.499487" fill-rule="nonzero" opacity="1" stroke="#000000" stroke-linecap="round" stroke-linejoin="round" stroke-width="6.5784" vectornator:layerName="path"/>
<path d="M211.064 108.475C211.604 108.475 212.043 107.873 212.043 107.13L212.043 70.7384C212.043 69.9954 211.604 69.394 211.064 69.394L203.478 69.394L203.478 108.475L211.064 108.475Z" fill="#000000" fill-opacity="0.499487" fill-rule="nonzero" opacity="1" stroke="#000000" stroke-linecap="round" stroke-linejoin="round" stroke-width="6.5784" vectornator:layerName="path"/>
</g>
</g>
<path d="M78.4331 47.1784" fill="none" opacity="1" stroke="#000000" stroke-linecap="butt" stroke-linejoin="round" stroke-width="6.5784" vectornator:layerName="Curve 1"/>
</g>
</svg>
